<?xml version="1.0" encoding="UTF-8"?>
<svg width="295px" height="48px" viewBox="0 0 295 48" version="1.1" xmlns="http://www.w3.org/2000/svg" xmlns:xlink="http://www.w3.org/1999/xlink">
    <title>coinstack-light</title>
    <g id="Page-1" stroke="none" stroke-width="1" fill="none" fill-rule="evenodd">
        <g id="Artboard" transform="translate(-37.000000, -105.000000)" fill-rule="nonzero">
            <g id="coinstack-light" transform="translate(37.923828, 105.414062)">
                <path d="M19.2480469,46.171875 C23.5839844,46.171875 27.5097656,45.4394531 31.0253906,43.9746094 L31.0253906,43.9746094 L31.0253906,36.3574219 C26.7480469,37.8613281 23.1054688,38.6132812 20.0976562,38.6132812 C12.9296875,38.6132812 9.34570312,33.8378906 9.34570312,24.2871094 C9.34570312,19.6972656 10.2832031,16.1181641 12.1582031,13.5498047 C14.0332031,10.9814453 16.6796875,9.69726562 20.0976562,9.69726562 C21.6601562,9.69726562 23.2519531,9.98046875 24.8730469,10.546875 C26.4941406,11.1132812 28.1054688,11.7773438 29.7070312,12.5390625 L29.7070312,12.5390625 L32.6367188,5.15625 C28.4375,3.14453125 24.2578125,2.13867188 20.0976562,2.13867188 C16.015625,2.13867188 12.4560547,3.03222656 9.41894531,4.81933594 C6.38183594,6.60644531 4.05273438,9.17480469 2.43164062,12.5244141 C0.810546875,15.8740234 0,19.7753906 0,24.2285156 C0,31.2988281 1.65039062,36.7236328 4.95117188,40.5029297 C8.25195312,44.2822266 13.0175781,46.171875 19.2480469,46.171875 Z M53.2324219,46.171875 C58.2519531,46.171875 62.1679688,44.6679688 64.9804688,41.6601562 C67.7929688,38.6523438 69.1992188,34.4824219 69.1992188,29.1503906 C69.1992188,25.7128906 68.5546875,22.7148438 67.265625,20.15625 C65.9765625,17.5976562 64.1308594,15.6347656 61.7285156,14.2675781 C59.3261719,12.9003906 56.5527344,12.2167969 53.4082031,12.2167969 C48.3496094,12.2167969 44.4238281,13.7011719 41.6308594,16.6699219 C38.8378906,19.6386719 37.4414062,23.7988281 37.4414062,29.1503906 C37.4414062,32.5878906 38.0859375,35.5957031 39.375,38.1738281 C40.6640625,40.7519531 42.5097656,42.7294922 44.9121094,44.1064453 C47.3144531,45.4833984 50.0878906,46.171875 53.2324219,46.171875 Z M53.3496094,38.9941406 C50.9472656,38.9941406 49.2138672,38.1640625 48.1494141,36.5039062 C47.0849609,34.84375 46.5527344,32.3925781 46.5527344,29.1503906 C46.5527344,25.8886719 47.0800781,23.4521484 48.1347656,21.8408203 C49.1894531,20.2294922 50.9082031,19.4238281 53.2910156,19.4238281 C55.6933594,19.4238281 57.421875,20.234375 58.4765625,21.8554688 C59.53125,23.4765625 60.0585938,25.9082031 60.0585938,29.1503906 C60.0585938,32.4121094 59.5361328,34.8681641 58.4912109,36.5185547 C57.4462891,38.1689453 55.7324219,38.9941406 53.3496094,38.9941406 Z M81.0644531,8.75976562 C82.6855469,8.75976562 83.9013672,8.37402344 84.7119141,7.60253906 C85.5224609,6.83105469 85.9277344,5.75195312 85.9277344,4.36523438 C85.9277344,1.45507812 84.3066406,0 81.0644531,0 C77.8222656,0 76.2011719,1.45507812 76.2011719,4.36523438 C76.2011719,7.29492188 77.8222656,8.75976562 81.0644531,8.75976562 Z M85.5175781,45.5859375 L85.5175781,12.8320312 L76.5820312,12.8320312 L76.5820312,45.5859375 L85.5175781,45.5859375 Z M103.828125,45.5859375 L103.828125,30.1757812 C103.828125,26.3085938 104.384766,23.5400391 105.498047,21.8701172 C106.611328,20.2001953 108.417969,19.3652344 110.917969,19.3652344 C112.753906,19.3652344 114.091797,19.9560547 114.931641,21.1376953 C115.771484,22.3193359 116.191406,24.0917969 116.191406,26.4550781 L116.191406,26.4550781 L116.191406,45.5859375 L125.126953,45.5859375 L125.126953,24.2285156 C125.126953,20.3417969 124.140625,17.3681641 122.167969,15.3076172 C120.195312,13.2470703 117.304688,12.2167969 113.496094,12.2167969 C111.269531,12.2167969 109.282227,12.6220703 107.53418,13.4326172 C105.786133,14.2431641 104.414062,15.4394531 103.417969,17.0214844 L103.417969,17.0214844 L102.919922,17.0214844 L101.71875,12.8320312 L94.8925781,12.8320312 L94.8925781,45.5859375 L103.828125,45.5859375 Z" id="Coin" fill="#F7921A"></path>
                <path d="M145.264648,46.171875 C150.225586,46.171875 154.097656,45.0585938 156.880859,42.8320312 C159.664062,40.6054688 161.055664,37.5585938 161.055664,33.6914062 C161.055664,30.8984375 160.313477,28.5400391 158.829102,26.6162109 C157.344727,24.6923828 154.600586,22.7734375 150.59668,20.859375 C147.569336,19.4140625 145.650391,18.4130859 144.839844,17.8564453 C144.029297,17.2998047 143.438477,16.7236328 143.067383,16.1279297 C142.696289,15.5322266 142.510742,14.8339844 142.510742,14.0332031 C142.510742,12.7441406 142.969727,11.6992188 143.887695,10.8984375 C144.805664,10.0976562 146.124023,9.69726562 147.842773,9.69726562 C149.288086,9.69726562 150.757812,9.8828125 152.251953,10.2539062 C153.746094,10.625 155.635742,11.2792969 157.920898,12.2167969 L157.920898,12.2167969 L160.850586,5.15625 C158.643555,4.19921875 156.529297,3.45703125 154.507812,2.9296875 C152.486328,2.40234375 150.362305,2.13867188 148.135742,2.13867188 C143.604492,2.13867188 140.054688,3.22265625 137.486328,5.390625 C134.917969,7.55859375 133.633789,10.5371094 133.633789,14.3261719 C133.633789,16.3378906 134.024414,18.0957031 134.805664,19.5996094 C135.586914,21.1035156 136.631836,22.421875 137.94043,23.5546875 C139.249023,24.6875 141.211914,25.8691406 143.829102,27.0996094 C146.62207,28.4277344 148.472656,29.3945312 149.380859,30 C150.289062,30.6054687 150.977539,31.2353516 151.446289,31.8896484 C151.915039,32.5439453 152.149414,33.2910156 152.149414,34.1308594 C152.149414,35.6347656 151.617188,36.7675781 150.552734,37.5292969 C149.488281,38.2910156 147.959961,38.671875 145.967773,38.671875 C144.307617,38.671875 142.476562,38.4082031 140.474609,37.8808594 C138.472656,37.3535156 136.026367,36.4453125 133.135742,35.15625 L133.135742,35.15625 L133.135742,43.59375 C136.651367,45.3125 140.694336,46.171875 145.264648,46.171875 Z M179.336914,46.171875 C182.579102,46.171875 185.313477,45.6738281 187.540039,44.6777344 L187.540039,44.6777344 L187.540039,38.0273438 C185.352539,38.7109375 183.477539,39.0527344 181.915039,39.0527344 C180.743164,39.0527344 179.800781,38.75 179.087891,38.1445312 C178.375,37.5390625 178.018555,36.6015625 178.018555,35.3320312 L178.018555,35.3320312 L178.018555,19.5410156 L187.188477,19.5410156 L187.188477,12.8320312 L178.018555,12.8320312 L178.018555,5.859375 L172.305664,5.859375 L169.727539,12.7734375 L164.805664,15.7617188 L164.805664,19.5410156 L169.083008,19.5410156 L169.083008,35.3320312 C169.083008,38.9453125 169.898438,41.6552734 171.529297,43.4619141 C173.160156,45.2685547 175.762695,46.171875 179.336914,46.171875 Z M202.129883,46.171875 C204.688477,46.171875 206.763672,45.8056641 208.355469,45.0732422 C209.947266,44.3408203 211.495117,43.0273438 212.999023,41.1328125 L212.999023,41.1328125 L213.233398,41.1328125 L214.961914,45.5859375 L221.202148,45.5859375 L221.202148,23.7597656 C221.202148,19.8535156 220.030273,16.9433594 217.686523,15.0292969 C215.342773,13.1152344 211.973633,12.1582031 207.579102,12.1582031 C202.989258,12.1582031 198.80957,13.1445312 195.040039,15.1171875 L195.040039,15.1171875 L197.999023,21.1523438 C201.53418,19.5703125 204.610352,18.7792969 207.227539,18.7792969 C210.625977,18.7792969 212.325195,20.4394531 212.325195,23.7597656 L212.325195,23.7597656 L212.325195,25.1953125 L206.641602,25.3710938 C201.739258,25.546875 198.072266,26.4599609 195.640625,28.1103516 C193.208984,29.7607422 191.993164,32.3242188 191.993164,35.8007812 C191.993164,39.1210938 192.896484,41.6796875 194.703125,43.4765625 C196.509766,45.2734375 198.985352,46.171875 202.129883,46.171875 Z M205.499023,39.6386719 C202.608398,39.6386719 201.163086,38.3789062 201.163086,35.859375 C201.163086,34.1015625 201.797852,32.7929688 203.067383,31.9335938 C204.336914,31.0742188 206.270508,30.6054688 208.868164,30.5273438 L208.868164,30.5273438 L212.325195,30.4101562 L212.325195,33.1054688 C212.325195,35.078125 211.705078,36.6601562 210.464844,37.8515625 C209.224609,39.0429688 207.569336,39.6386719 205.499023,39.6386719 Z M243.702148,46.171875 C245.948242,46.171875 247.808594,45.9960938 249.283203,45.6445312 C250.757812,45.2929688 252.217773,44.6582031 253.663086,43.7402344 L253.663086,43.7402344 L253.663086,36.09375 C252.198242,37.0703125 250.733398,37.7880859 249.268555,38.2470703 C247.803711,38.7060547 246.211914,38.9355469 244.493164,38.9355469 C239.844727,38.9355469 237.520508,35.7324219 237.520508,29.3261719 C237.520508,22.7246094 239.844727,19.4238281 244.493164,19.4238281 C245.704102,19.4238281 246.915039,19.6044922 248.125977,19.9658203 C249.336914,20.3271484 250.645508,20.7910156 252.051758,21.3574219 L252.051758,21.3574219 L254.688477,14.4433594 C251.680664,12.9589844 248.282227,12.2167969 244.493164,12.2167969 C239.317383,12.2167969 235.342773,13.6865234 232.569336,16.6259766 C229.795898,19.5654297 228.40918,23.8183594 228.40918,29.3847656 C228.40918,40.5761719 233.506836,46.171875 243.702148,46.171875 Z M270.186523,45.5859375 L270.186523,35.390625 L274.024414,32.3144531 L283.458008,45.5859375 L293.770508,45.5859375 L279.97168,27.0410156 L292.979492,12.8320312 L282.901367,12.8320312 L273.731445,22.7929688 L269.834961,27.7734375 L269.717773,27.7734375 L270.186523,20.3320312 L270.186523,0 L261.250977,0 L261.250977,45.5859375 L270.186523,45.5859375 Z" id="Stack" fill="#000000"></path>
            </g>
        </g>
    </g>
</svg>