<?xml version="1.0" encoding="UTF-8"?>
<svg width="295px" height="47px" viewBox="0 0 295 47" version="1.1" xmlns="http://www.w3.org/2000/svg" xmlns:xlink="http://www.w3.org/1999/xlink">
    <title>coinstack-dark</title>
    <g id="Page-1" stroke="none" stroke-width="1" fill="none" fill-rule="evenodd">
        <g id="Artboard-Copy" transform="translate(-36.000000, -105.000000)" fill-rule="nonzero">
            <g id="coinstack-dark" transform="translate(36.000000, 105.000000)">
                <path d="M20.171875,46.5859375 C24.5078125,46.5859375 28.4335938,45.8535156 31.9492188,44.3886719 L31.9492188,44.3886719 L31.9492188,36.7714844 C27.671875,38.2753906 24.0292969,39.0273438 21.0214844,39.0273438 C13.8535156,39.0273438 10.2695312,34.2519531 10.2695312,24.7011719 C10.2695312,20.1113281 11.2070312,16.5322266 13.0820312,13.9638672 C14.9570312,11.3955078 17.6035156,10.1113281 21.0214844,10.1113281 C22.5839844,10.1113281 24.1757812,10.3945312 25.796875,10.9609375 C27.4179688,11.5273438 29.0292969,12.1914062 30.6308594,12.953125 L30.6308594,12.953125 L33.5605469,5.5703125 C29.3613281,3.55859375 25.1816406,2.55273438 21.0214844,2.55273438 C16.9394531,2.55273438 13.3798828,3.44628906 10.3427734,5.23339844 C7.30566406,7.02050781 4.9765625,9.58886719 3.35546875,12.9384766 C1.734375,16.2880859 0.923828125,20.1894531 0.923828125,24.6425781 C0.923828125,31.7128906 2.57421875,37.1376953 5.875,40.9169922 C9.17578125,44.6962891 13.9414062,46.5859375 20.171875,46.5859375 Z M54.15625,46.5859375 C59.1757812,46.5859375 63.0917969,45.0820312 65.9042969,42.0742188 C68.7167969,39.0664062 70.1230469,34.8964844 70.1230469,29.5644531 C70.1230469,26.1269531 69.4785156,23.1289062 68.1894531,20.5703125 C66.9003906,18.0117188 65.0546875,16.0488281 62.6523438,14.6816406 C60.25,13.3144531 57.4765625,12.6308594 54.3320312,12.6308594 C49.2734375,12.6308594 45.3476562,14.1152344 42.5546875,17.0839844 C39.7617188,20.0527344 38.3652344,24.2128906 38.3652344,29.5644531 C38.3652344,33.0019531 39.0097656,36.0097656 40.2988281,38.5878906 C41.5878906,41.1660156 43.4335938,43.1435547 45.8359375,44.5205078 C48.2382812,45.8974609 51.0117188,46.5859375 54.15625,46.5859375 Z M54.2734375,39.4082031 C51.8710938,39.4082031 50.1376953,38.578125 49.0732422,36.9179688 C48.0087891,35.2578125 47.4765625,32.8066406 47.4765625,29.5644531 C47.4765625,26.3027344 48.0039062,23.8662109 49.0585938,22.2548828 C50.1132812,20.6435547 51.8320312,19.8378906 54.2148438,19.8378906 C56.6171875,19.8378906 58.3457031,20.6484375 59.4003906,22.2695312 C60.4550781,23.890625 60.9824219,26.3222656 60.9824219,29.5644531 C60.9824219,32.8261719 60.4599609,35.2822266 59.4150391,36.9326172 C58.3701172,38.5830078 56.65625,39.4082031 54.2734375,39.4082031 Z M81.9882812,9.17382812 C83.609375,9.17382812 84.8251953,8.78808594 85.6357422,8.01660156 C86.4462891,7.24511719 86.8515625,6.16601562 86.8515625,4.77929688 C86.8515625,1.86914062 85.2304688,0.4140625 81.9882812,0.4140625 C78.7460938,0.4140625 77.125,1.86914062 77.125,4.77929688 C77.125,7.70898438 78.7460938,9.17382812 81.9882812,9.17382812 Z M86.4414062,46 L86.4414062,13.2460938 L77.5058594,13.2460938 L77.5058594,46 L86.4414062,46 Z M104.751953,46 L104.751953,30.5898438 C104.751953,26.7226562 105.308594,23.9541016 106.421875,22.2841797 C107.535156,20.6142578 109.341797,19.7792969 111.841797,19.7792969 C113.677734,19.7792969 115.015625,20.3701172 115.855469,21.5517578 C116.695312,22.7333984 117.115234,24.5058594 117.115234,26.8691406 L117.115234,26.8691406 L117.115234,46 L126.050781,46 L126.050781,24.6425781 C126.050781,20.7558594 125.064453,17.7822266 123.091797,15.7216797 C121.119141,13.6611328 118.228516,12.6308594 114.419922,12.6308594 C112.193359,12.6308594 110.206055,13.0361328 108.458008,13.8466797 C106.709961,14.6572266 105.337891,15.8535156 104.341797,17.4355469 L104.341797,17.4355469 L103.84375,17.4355469 L102.642578,13.2460938 L95.8164062,13.2460938 L95.8164062,46 L104.751953,46 Z" id="Coin" fill="#F7921A"></path>
                <path d="M146.188477,46.5859375 C151.149414,46.5859375 155.021484,45.4726562 157.804688,43.2460938 C160.587891,41.0195312 161.979492,37.9726562 161.979492,34.1054688 C161.979492,31.3125 161.237305,28.9541016 159.75293,27.0302734 C158.268555,25.1064453 155.524414,23.1875 151.520508,21.2734375 C148.493164,19.828125 146.574219,18.8271484 145.763672,18.2705078 C144.953125,17.7138672 144.362305,17.1376953 143.991211,16.5419922 C143.620117,15.9462891 143.43457,15.2480469 143.43457,14.4472656 C143.43457,13.1582031 143.893555,12.1132812 144.811523,11.3125 C145.729492,10.5117188 147.047852,10.1113281 148.766602,10.1113281 C150.211914,10.1113281 151.681641,10.296875 153.175781,10.6679688 C154.669922,11.0390625 156.55957,11.6933594 158.844727,12.6308594 L158.844727,12.6308594 L161.774414,5.5703125 C159.567383,4.61328125 157.453125,3.87109375 155.431641,3.34375 C153.410156,2.81640625 151.286133,2.55273438 149.05957,2.55273438 C144.52832,2.55273438 140.978516,3.63671875 138.410156,5.8046875 C135.841797,7.97265625 134.557617,10.9511719 134.557617,14.7402344 C134.557617,16.7519531 134.948242,18.5097656 135.729492,20.0136719 C136.510742,21.5175781 137.555664,22.8359375 138.864258,23.96875 C140.172852,25.1015625 142.135742,26.2832031 144.75293,27.5136719 C147.545898,28.8417969 149.396484,29.8085938 150.304688,30.4140625 C151.212891,31.0195312 151.901367,31.6494141 152.370117,32.3037109 C152.838867,32.9580078 153.073242,33.7050781 153.073242,34.5449219 C153.073242,36.0488281 152.541016,37.1816406 151.476562,37.9433594 C150.412109,38.7050781 148.883789,39.0859375 146.891602,39.0859375 C145.231445,39.0859375 143.400391,38.8222656 141.398438,38.2949219 C139.396484,37.7675781 136.950195,36.859375 134.05957,35.5703125 L134.05957,35.5703125 L134.05957,44.0078125 C137.575195,45.7265625 141.618164,46.5859375 146.188477,46.5859375 Z M180.260742,46.5859375 C183.50293,46.5859375 186.237305,46.0878906 188.463867,45.0917969 L188.463867,45.0917969 L188.463867,38.4414062 C186.276367,39.125 184.401367,39.4667969 182.838867,39.4667969 C181.666992,39.4667969 180.724609,39.1640625 180.011719,38.5585938 C179.298828,37.953125 178.942383,37.015625 178.942383,35.7460938 L178.942383,35.7460938 L178.942383,19.9550781 L188.112305,19.9550781 L188.112305,13.2460938 L178.942383,13.2460938 L178.942383,6.2734375 L173.229492,6.2734375 L170.651367,13.1875 L165.729492,16.1757812 L165.729492,19.9550781 L170.006836,19.9550781 L170.006836,35.7460938 C170.006836,39.359375 170.822266,42.0693359 172.453125,43.8759766 C174.083984,45.6826172 176.686523,46.5859375 180.260742,46.5859375 Z M203.053711,46.5859375 C205.612305,46.5859375 207.6875,46.2197266 209.279297,45.4873047 C210.871094,44.7548828 212.418945,43.4414062 213.922852,41.546875 L213.922852,41.546875 L214.157227,41.546875 L215.885742,46 L222.125977,46 L222.125977,24.1738281 C222.125977,20.2675781 220.954102,17.3574219 218.610352,15.4433594 C216.266602,13.5292969 212.897461,12.5722656 208.50293,12.5722656 C203.913086,12.5722656 199.733398,13.5585938 195.963867,15.53125 L195.963867,15.53125 L198.922852,21.5664062 C202.458008,19.984375 205.53418,19.1933594 208.151367,19.1933594 C211.549805,19.1933594 213.249023,20.8535156 213.249023,24.1738281 L213.249023,24.1738281 L213.249023,25.609375 L207.56543,25.7851562 C202.663086,25.9609375 198.996094,26.8740234 196.564453,28.5244141 C194.132812,30.1748047 192.916992,32.7382812 192.916992,36.2148438 C192.916992,39.5351562 193.820312,42.09375 195.626953,43.890625 C197.433594,45.6875 199.90918,46.5859375 203.053711,46.5859375 Z M206.422852,40.0527344 C203.532227,40.0527344 202.086914,38.7929688 202.086914,36.2734375 C202.086914,34.515625 202.72168,33.2070312 203.991211,32.3476562 C205.260742,31.4882812 207.194336,31.0195312 209.791992,30.9414062 L209.791992,30.9414062 L213.249023,30.8242188 L213.249023,33.5195312 C213.249023,35.4921875 212.628906,37.0742188 211.388672,38.265625 C210.148438,39.4570312 208.493164,40.0527344 206.422852,40.0527344 Z M244.625977,46.5859375 C246.87207,46.5859375 248.732422,46.4101562 250.207031,46.0585938 C251.681641,45.7070312 253.141602,45.0722656 254.586914,44.1542969 L254.586914,44.1542969 L254.586914,36.5078125 C253.12207,37.484375 251.657227,38.2021484 250.192383,38.6611328 C248.727539,39.1201172 247.135742,39.3496094 245.416992,39.3496094 C240.768555,39.3496094 238.444336,36.1464844 238.444336,29.7402344 C238.444336,23.1386719 240.768555,19.8378906 245.416992,19.8378906 C246.62793,19.8378906 247.838867,20.0185547 249.049805,20.3798828 C250.260742,20.7412109 251.569336,21.2050781 252.975586,21.7714844 L252.975586,21.7714844 L255.612305,14.8574219 C252.604492,13.3730469 249.206055,12.6308594 245.416992,12.6308594 C240.241211,12.6308594 236.266602,14.1005859 233.493164,17.0400391 C230.719727,19.9794922 229.333008,24.2324219 229.333008,29.7988281 C229.333008,40.9902344 234.430664,46.5859375 244.625977,46.5859375 Z M271.110352,46 L271.110352,35.8046875 L274.948242,32.7285156 L284.381836,46 L294.694336,46 L280.895508,27.4550781 L293.90332,13.2460938 L283.825195,13.2460938 L274.655273,23.2070312 L270.758789,28.1875 L270.641602,28.1875 L271.110352,20.7460938 L271.110352,0.4140625 L262.174805,0.4140625 L262.174805,46 L271.110352,46 Z" id="Stack" fill="#FFFFFF"></path>
            </g>
        </g>
    </g>
</svg>