<?xml version="1.0" encoding="UTF-8"?>
<svg width="200px" height="26px" viewBox="0 0 200 26" version="1.1" xmlns="http://www.w3.org/2000/svg" xmlns:xlink="http://www.w3.org/1999/xlink">
    <!-- Generator: Sketch 60.1 (88133) - https://sketch.com -->
    <title>k-dark</title>
    <desc>Created with Sketch.</desc>
    <defs>
        <rect id="path-1" x="0" y="0" width="205" height="28"></rect>
    </defs>
    <g id="Page-1" stroke="none" stroke-width="1" fill="none" fill-rule="evenodd">
        <g id="Desktop-HD-Copy" transform="translate(-724.000000, -735.000000)">
            <g id="k-dark" transform="translate(724.000000, 734.000000)">
                <mask id="mask-2" fill="white">
                    <use xlink:href="#path-1"></use>
                </mask>
                <g id="Mask"></g>
                <g mask="url(#mask-2)" fill-rule="nonzero">
                    <g transform="translate(0.000000, 1.000000)">
                        <path d="M96.6835651,25.6656993 C102.779931,25.6656993 106.364594,22.7516365 106.376786,18.1793623 C106.364594,14.0216409 103.231062,11.8147566 98.8904495,10.8393381 L96.6469869,10.3028579 C94.4766808,9.80295593 92.6599638,8.99823566 92.696542,7.20590417 C92.696542,5.59646364 94.1230915,4.41376871 96.7079506,4.41376871 C99.2318459,4.41376871 100.780323,5.55988545 100.975407,7.52291518 L106.03539,7.52291518 C105.962234,3.07256828 102.304414,0 96.7445288,0 C91.2699924,0 87.2585839,3.02379735 87.2829693,7.55949338 C87.2707766,11.2416982 89.8678283,13.3510407 94.0865134,14.3630374 L96.8054924,15.0458304 C99.5244715,15.7042379 101.03637,16.4845727 101.048563,18.1671696 C101.03637,19.9960793 99.3050023,21.2397378 96.6226015,21.2397378 C93.8792369,21.2397378 91.9040145,19.9716938 91.7333162,17.4721839 L86.6245618,17.4721839 C86.7586819,22.8735638 90.6237777,25.6656993 96.6835651,25.6656993 Z M116.050522,25.3121101 L116.050522,17.2161365 L120.488676,17.2161365 C126.231452,17.2161365 129.572261,13.789979 129.572261,8.80315196 C129.572261,3.84071034 126.292416,0.341396475 120.622796,0.341396475 L110.771069,0.341396475 L110.771069,25.3121101 L116.050522,25.3121101 Z M119.635185,12.9852588 L116.050522,12.9852588 L116.050522,4.65762334 L119.610799,4.65762334 C122.658982,4.65762334 124.134303,6.31583479 124.134303,8.80315196 C124.134303,11.2782764 122.658982,12.9852588 119.635185,12.9852588 Z M135.283355,25.3121101 L137.13665,19.6181046 L146.147079,19.6181046 L148.000374,25.3121101 L153.657801,25.3121101 L145.049733,0.341396475 L138.246189,0.341396475 L129.625928,25.3121101 L135.283355,25.3121101 Z M144.818071,15.4969614 L138.477851,15.4969614 L141.550419,6.0475947 L141.745503,6.0475947 L144.818071,15.4969614 Z M167.538031,25.6535066 C173.939215,25.6535066 177.80431,21.3982433 178.377369,16.8015837 L173.036952,16.7771982 C172.53705,19.4474063 170.439901,20.9836905 167.62338,20.9836905 C163.83144,20.9836905 161.258774,18.1671696 161.258774,12.8267533 C161.258774,7.63264976 163.794862,4.66981607 167.659958,4.66981607 C170.549635,4.66981607 172.634592,6.34022025 173.036952,9.08358478 L178.377369,9.08358478 C177.682383,3.3164229 173.317385,0 167.538031,0 C160.941763,0 155.906165,4.65762334 155.906165,12.8267533 C155.906165,20.9714978 160.856414,25.6535066 167.538031,25.6535066 Z M199.902442,25.3121101 L199.902442,20.959305 L188.307155,20.959305 L188.307155,14.9970594 L198.987987,14.9970594 L198.987987,10.6442544 L188.307155,10.6442544 L188.307155,4.69420153 L199.853671,4.69420153 L199.853671,0.341396475 L183.027702,0.341396475 L183.027702,25.3121101 L199.902442,25.3121101 Z" id="KOINSPACE" fill="#000000"></path>
                        <polygon id="Path" fill="#FF7700" points="5.27945263 25.3121101 5.27945263 18.2159405 7.87650439 15.0458304 14.7166266 25.3121101 21.0324614 25.3121101 11.6562511 11.522131 20.9227268 0.341396475 14.5946993 0.341396475 5.60865638 11.3514328 5.27945263 11.3514328 5.27945263 0.341396475 -1.77635684e-15 0.341396475 -1.77635684e-15 25.3121101"></polygon>
                        <path d="M34.3884013,25.6535066 C41.0090544,25.6535066 46.0812306,20.9958832 46.0812306,12.8267533 C46.0812306,4.65762334 41.0090544,-1.77635684e-15 34.3884013,-1.77635684e-15 C27.73117,-1.77635684e-15 22.695572,4.65762334 22.695572,12.8267533 C22.695572,20.959305 27.73117,25.6535066 34.3884013,25.6535066 Z" id="Path" fill="#FF7700"></path>
                        <polygon id="Path" fill="#FF7700" points="56.1207519 25.3121101 56.1207519 0.341396475 50.8412993 0.341396475 50.8412993 25.3121101"></polygon>
                        <polygon id="Path" fill="#FF7700" points="66.6113879 25.3121101 66.6113879 9.59567949 66.7942788 9.59567949 77.6580024 25.3121101 82.2180839 25.3121101 82.2180839 0.341396475 76.9630167 0.341396475 76.9630167 16.0456343 76.7435475 16.0456343 65.9651731 0.341396475 61.3319352 0.341396475 61.3319352 25.3121101"></polygon>
                        <path d="M34.3884013,20.9836905 C30.5476909,20.9836905 28.048181,18.1183986 28.048181,12.8267533 C28.048181,7.53510791 30.5476909,4.66981607 34.3884013,4.66981607 C38.2169189,4.66981607 40.7286215,7.53510791 40.7286215,12.8267533 C40.7286215,18.1183986 38.2169189,20.9836905 34.3884013,20.9836905 Z" id="Path" fill="#000000"></path>
                    </g>
                </g>
            </g>
        </g>
    </g>
</svg>