<?xml version="1.0" encoding="UTF-8"?>
<svg width="293px" height="20px" viewBox="0 0 293 20" version="1.1" xmlns="http://www.w3.org/2000/svg" xmlns:xlink="http://www.w3.org/1999/xlink">
    <!-- Generator: Sketch 60.1 (88133) - https://sketch.com -->
    <title>light</title>
    <desc>Created with Sketch.</desc>
    <g id="Page-1" stroke="none" stroke-width="1" fill="none" fill-rule="evenodd">
        <g id="Desktop-HD-Copy" transform="translate(-694.000000, -393.000000)" fill-rule="nonzero">
            <g id="light" transform="translate(694.400000, 393.840000)">
                <path d="M29.36,18.24 C29.8933333,18.24 30.3466667,18.0533333 30.72,17.68 C31.0933333,17.3066667 31.28,16.8533333 31.28,16.32 C31.28,15.9466667 31.1733333,15.62 30.96,15.34 C30.7466667,15.06 30.4933333,14.8133333 30.2,14.6 C29.5066667,14.0666667 28.84,13.5666667 28.2,13.1 C27.56,12.6333333 26.92,12.2 26.28,11.8 C25.64,11.4 24.98,11.0133333 24.3,10.64 C23.62,10.2666667 22.8933333,9.89333333 22.12,9.52 C22.8933333,9.14666667 23.62,8.77333333 24.3,8.4 C24.98,8.02666667 25.64,7.64 26.28,7.24 C26.92,6.84 27.56,6.40666667 28.2,5.94 C28.84,5.47333333 29.5066667,4.97333333 30.2,4.44 C30.4933333,4.22666667 30.7466667,3.98 30.96,3.7 C31.1733333,3.42 31.28,3.09333333 31.28,2.72 C31.28,2.18666667 31.0933333,1.73333333 30.72,1.36 C30.3466667,0.986666667 29.8933333,0.8 29.36,0.8 C28.9066667,0.8 28.4533333,0.986666667 28,1.36 C26.9333333,2.13333333 25.82,2.89333333 24.66,3.64 C23.5,4.38666667 22.2866667,5.05333333 21.02,5.64 C19.7533333,6.22666667 18.4533333,6.7 17.12,7.06 C15.7866667,7.42 14.4266667,7.6 13.04,7.6 L13.04,7.6 L3.8,7.6 L3.8,2.72 C3.8,2.18666667 3.61333333,1.73333333 3.24,1.36 C2.86666667,0.986666667 2.41333333,0.8 1.88,0.8 C1.37333333,0.8 0.933333333,0.986666667 0.56,1.36 C0.186666667,1.73333333 -5.68434189e-14,2.18666667 -5.68434189e-14,2.72 L-5.68434189e-14,2.72 L-5.68434189e-14,16.32 C-5.68434189e-14,16.8533333 0.186666667,17.3066667 0.56,17.68 C0.933333333,18.0533333 1.38666667,18.24 1.92,18.24 C2.42666667,18.24 2.86666667,18.0533333 3.24,17.68 C3.61333333,17.3066667 3.8,16.8533333 3.8,16.32 L3.8,16.32 L3.8,11.44 L13.04,11.44 C14.4266667,11.44 15.7866667,11.6133333 17.12,11.96 C18.4533333,12.3066667 19.7466667,12.7733333 21,13.36 C22.2533333,13.9466667 23.46,14.6133333 24.62,15.36 C25.78,16.1066667 26.9066667,16.88 28,17.68 C28.4533333,18.0533333 28.9066667,18.24 29.36,18.24 Z M61.48,18.24 C62.6266667,18.24 63.6533333,17.9733333 64.56,17.44 C65.4666667,16.9066667 66.24,16.22 66.88,15.38 C67.52,14.54 68.0066667,13.6066667 68.34,12.58 C68.6733333,11.5533333 68.84,10.5333333 68.84,9.52 C68.84,8.53333333 68.68,7.53333333 68.36,6.52 C68.04,5.50666667 67.58,4.58666667 66.98,3.76 C66.38,2.93333333 65.6533333,2.24666667 64.8,1.7 C63.9466667,1.15333333 62.9733333,0.853333333 61.88,0.8 L61.88,0.8 L43.64,0.8 C42.4933333,0.8 41.4666667,1.06666667 40.56,1.6 C39.6533333,2.13333333 38.88,2.82 38.24,3.66 C37.6,4.5 37.1133333,5.43333333 36.78,6.46 C36.4466667,7.48666667 36.28,8.50666667 36.28,9.52 C36.28,10.5066667 36.44,11.5066667 36.76,12.52 C37.08,13.5333333 37.54,14.4533333 38.14,15.28 C38.74,16.1066667 39.4666667,16.7933333 40.32,17.34 C41.1733333,17.8866667 42.1466667,18.1866667 43.24,18.24 L43.24,18.24 L61.48,18.24 Z M60.64,14.4 L44.48,14.4 C43.5466667,14.4 42.7933333,14.2333333 42.22,13.9 C41.6466667,13.5666667 41.1933333,13.16 40.86,12.68 C40.5266667,12.2 40.3,11.6733333 40.18,11.1 C40.06,10.5266667 40,10 40,9.52 C40,9.04 40.06,8.51333333 40.18,7.94 C40.3,7.36666667 40.5266667,6.84 40.86,6.36 C41.1933333,5.88 41.6466667,5.47333333 42.22,5.14 C42.7933333,4.80666667 43.5466667,4.64 44.48,4.64 L44.48,4.64 L60.64,4.64 C61.5466667,4.64 62.2933333,4.80666667 62.88,5.14 C63.4666667,5.47333333 63.9266667,5.88 64.26,6.36 C64.5933333,6.84 64.82,7.36666667 64.94,7.94 C65.06,8.51333333 65.12,9.04 65.12,9.52 C65.12,10 65.06,10.5266667 64.94,11.1 C64.82,11.6733333 64.5933333,12.2 64.26,12.68 C63.9266667,13.16 63.4666667,13.5666667 62.88,13.9 C62.2933333,14.2333333 61.5466667,14.4 60.64,14.4 L60.64,14.4 Z M75.76,18.24 C76.2933333,18.24 76.7466667,18.0533333 77.12,17.68 C77.4933333,17.3066667 77.68,16.8533333 77.68,16.32 L77.68,16.32 L77.68,2.72 C77.68,2.18666667 77.4933333,1.73333333 77.12,1.36 C76.7466667,0.986666667 76.2933333,0.8 75.76,0.8 C75.2266667,0.8 74.7733333,0.986666667 74.4,1.36 C74.0266667,1.73333333 73.84,2.18666667 73.84,2.72 L73.84,2.72 L73.84,16.32 C73.84,16.8533333 74.0266667,17.3066667 74.4,17.68 C74.7733333,18.0533333 75.2266667,18.24 75.76,18.24 Z M111.84,18.24 C112.373333,18.24 112.826667,18.0533333 113.2,17.68 C113.573333,17.3066667 113.76,16.8533333 113.76,16.32 L113.76,16.32 L113.76,9.52 C113.76,8.53333333 113.6,7.53333333 113.28,6.52 C112.96,5.50666667 112.5,4.58666667 111.9,3.76 C111.3,2.93333333 110.573333,2.24666667 109.72,1.7 C108.866667,1.15333333 107.893333,0.853333333 106.8,0.8 L106.8,0.8 L90.04,0.8 C88.8933333,0.8 87.8666667,1.06666667 86.96,1.6 C86.0533333,2.13333333 85.28,2.82 84.64,3.66 C84,4.5 83.5133333,5.43333333 83.18,6.46 C82.8466667,7.48666667 82.68,8.50666667 82.68,9.52 L82.68,9.52 L82.68,16.32 C82.68,16.8533333 82.8666667,17.3066667 83.24,17.68 C83.6133333,18.0533333 84.0666667,18.24 84.6,18.24 C85.1333333,18.24 85.5866667,18.0533333 85.96,17.68 C86.3333333,17.3066667 86.52,16.8533333 86.52,16.32 L86.52,16.32 L86.52,9.52 C86.52,9.04 86.58,8.51333333 86.7,7.94 C86.82,7.36666667 87.0466667,6.84 87.38,6.36 C87.7133333,5.88 88.1666667,5.47333333 88.74,5.14 C89.3133333,4.80666667 90.0666667,4.64 91,4.64 L91,4.64 L105.44,4.64 C106.346667,4.64 107.093333,4.80666667 107.68,5.14 C108.266667,5.47333333 108.726667,5.88 109.06,6.36 C109.393333,6.84 109.62,7.36666667 109.74,7.94 C109.86,8.51333333 109.92,9.04 109.92,9.52 L109.92,9.52 L109.92,16.32 C109.92,16.8533333 110.106667,17.3066667 110.48,17.68 C110.853333,18.0533333 111.306667,18.24 111.84,18.24 Z M146.12,18.24 C146.866667,18.24 147.566667,18.1066667 148.22,17.84 C148.873333,17.5733333 149.44,17.2 149.92,16.72 C150.4,16.24 150.78,15.68 151.06,15.04 C151.34,14.4 151.48,13.7066667 151.48,12.96 C151.48,12.2133333 151.34,11.5133333 151.06,10.86 C150.78,10.2066667 150.4,9.64 149.92,9.16 C149.44,8.68 148.873333,8.3 148.22,8.02 C147.566667,7.74 146.866667,7.6 146.12,7.6 L146.12,7.6 L124,7.6 C123.6,7.6 123.246667,7.45333333 122.94,7.16 C122.633333,6.86666667 122.48,6.52 122.48,6.12 C122.48,5.69333333 122.633333,5.34 122.94,5.06 C123.246667,4.78 123.6,4.64 124,4.64 L124,4.64 L148.36,4.64 C148.893333,4.64 149.346667,4.45333333 149.72,4.08 C150.093333,3.70666667 150.28,3.25333333 150.28,2.72 C150.28,2.18666667 150.093333,1.73333333 149.72,1.36 C149.346667,0.986666667 148.893333,0.8 148.36,0.8 L148.36,0.8 L124.08,0.8 C123.333333,0.8 122.64,0.94 122,1.22 C121.36,1.5 120.8,1.88 120.32,2.36 C119.84,2.84 119.46,3.4 119.18,4.04 C118.9,4.68 118.76,5.37333333 118.76,6.12 C118.76,6.86666667 118.9,7.56 119.18,8.2 C119.46,8.84 119.84,9.4 120.32,9.88 C120.8,10.36 121.36,10.74 122,11.02 C122.64,11.3 123.333333,11.44 124.08,11.44 L124.08,11.44 L146.28,11.44 C146.68,11.44 147.026667,11.5866667 147.32,11.88 C147.613333,12.1733333 147.76,12.5333333 147.76,12.96 C147.76,13.36 147.613333,13.7 147.32,13.98 C147.026667,14.26 146.68,14.4 146.28,14.4 L146.28,14.4 L121.88,14.4 C121.346667,14.4 120.893333,14.5866667 120.52,14.96 C120.146667,15.3333333 119.96,15.7866667 119.96,16.32 C119.96,16.8533333 120.146667,17.3066667 120.52,17.68 C120.893333,18.0533333 121.346667,18.24 121.88,18.24 L121.88,18.24 L146.12,18.24 Z M158.4,18.24 C158.906667,18.24 159.353333,18.0533333 159.74,17.68 C160.126667,17.3066667 160.32,16.8533333 160.32,16.32 L160.32,16.32 L160.32,11.44 L182.36,11.44 C183.106667,11.44 183.806667,11.3 184.46,11.02 C185.113333,10.74 185.686667,10.36 186.18,9.88 C186.673333,9.4 187.06,8.84 187.34,8.2 C187.62,7.56 187.76,6.86666667 187.76,6.12 C187.76,5.37333333 187.62,4.68 187.34,4.04 C187.06,3.4 186.673333,2.84 186.18,2.36 C185.686667,1.88 185.113333,1.5 184.46,1.22 C183.806667,0.94 183.106667,0.8 182.36,0.8 L182.36,0.8 L158.4,0.8 C157.866667,0.8 157.413333,0.986666667 157.04,1.36 C156.666667,1.73333333 156.48,2.18666667 156.48,2.72 L156.48,2.72 L156.48,16.32 C156.48,16.8533333 156.666667,17.3066667 157.04,17.68 C157.413333,18.0533333 157.866667,18.24 158.4,18.24 Z M182.52,7.6 L160.32,7.6 L160.32,4.64 L182.52,4.64 C182.92,4.64 183.273333,4.78666667 183.58,5.08 C183.886667,5.37333333 184.04,5.72 184.04,6.12 C184.04,6.54666667 183.886667,6.9 183.58,7.18 C183.273333,7.46 182.92,7.6 182.52,7.6 L182.52,7.6 Z M217.48,18.24 C218.013333,18.24 218.466667,18.0533333 218.84,17.68 C219.213333,17.3066667 219.4,16.8533333 219.4,16.32 C219.4,16.0533333 219.346667,15.8066667 219.24,15.58 C219.133333,15.3533333 219,15.1466667 218.84,14.96 L218.84,14.96 L209.12,1.96 C208.666667,1.34666667 208.08,0.866666667 207.36,0.52 C206.64,0.173333333 205.88,0 205.08,0 C204.226667,0 203.426667,0.193333333 202.68,0.58 C201.933333,0.966666667 201.333333,1.46666667 200.88,2.08 L200.88,2.08 L191.16,15.16 C190.893333,15.4533333 190.76,15.84 190.76,16.32 C190.76,16.8533333 190.946667,17.3066667 191.32,17.68 C191.693333,18.0533333 192.146667,18.24 192.68,18.24 C193.266667,18.24 193.76,18 194.16,17.52 L194.16,17.52 L203.56,5.04 C203.72,4.82666667 203.94,4.59333333 204.22,4.34 C204.5,4.08666667 204.786667,3.96 205.08,3.96 C205.373333,3.96 205.66,4.08666667 205.94,4.34 C206.22,4.59333333 206.453333,4.82666667 206.64,5.04 L206.64,5.04 L215.96,17.48 C216.333333,17.9866667 216.84,18.24 217.48,18.24 Z M254.08,18.24 C254.613333,18.24 255.066667,18.0533333 255.44,17.68 C255.813333,17.3066667 256,16.8533333 256,16.32 C256,15.7866667 255.813333,15.3333333 255.44,14.96 C255.066667,14.5866667 254.613333,14.4 254.08,14.4 L254.08,14.4 L231.6,14.4 C230.666667,14.4 229.913333,14.2333333 229.34,13.9 C228.766667,13.5666667 228.313333,13.16 227.98,12.68 C227.646667,12.2 227.42,11.6733333 227.3,11.1 C227.18,10.5266667 227.12,10 227.12,9.52 C227.12,9.04 227.18,8.51333333 227.3,7.94 C227.42,7.36666667 227.646667,6.84 227.98,6.36 C228.313333,5.88 228.766667,5.47333333 229.34,5.14 C229.913333,4.80666667 230.666667,4.64 231.6,4.64 L231.6,4.64 L254.08,4.64 C254.613333,4.64 255.066667,4.45333333 255.44,4.08 C255.813333,3.70666667 256,3.25333333 256,2.72 C256,2.18666667 255.813333,1.73333333 255.44,1.36 C255.066667,0.986666667 254.613333,0.8 254.08,0.8 L254.08,0.8 L230.76,0.8 C229.613333,0.8 228.586667,1.06666667 227.68,1.6 C226.773333,2.13333333 226,2.82 225.36,3.66 C224.72,4.5 224.233333,5.43333333 223.9,6.46 C223.566667,7.48666667 223.4,8.50666667 223.4,9.52 C223.4,10.5066667 223.56,11.52 223.88,12.56 C224.2,13.6 224.66,14.54 225.26,15.38 C225.86,16.22 226.586667,16.9066667 227.44,17.44 C228.293333,17.9733333 229.266667,18.24 230.36,18.24 L230.36,18.24 L254.08,18.24 Z M290.28,18.24 C290.813333,18.24 291.266667,18.0533333 291.64,17.68 C292.013333,17.3066667 292.2,16.8533333 292.2,16.32 C292.2,15.7866667 292.013333,15.3333333 291.64,14.96 C291.266667,14.5866667 290.813333,14.4 290.28,14.4 L290.28,14.4 L268.24,14.4 C267.306667,14.4 266.553333,14.2333333 265.98,13.9 C265.406667,13.5666667 264.953333,13.16 264.62,12.68 C264.286667,12.2 264.06,11.6733333 263.94,11.1 C263.82,10.5266667 263.76,10 263.76,9.52 C263.76,9.04 263.82,8.51333333 263.94,7.94 C264.06,7.36666667 264.286667,6.84 264.62,6.36 C264.953333,5.88 265.406667,5.47333333 265.98,5.14 C266.553333,4.80666667 267.306667,4.64 268.24,4.64 L268.24,4.64 L290.28,4.64 C290.813333,4.64 291.266667,4.45333333 291.64,4.08 C292.013333,3.70666667 292.2,3.25333333 292.2,2.72 C292.2,2.18666667 292.013333,1.73333333 291.64,1.36 C291.266667,0.986666667 290.813333,0.8 290.28,0.8 L290.28,0.8 L267.36,0.8 C266.213333,0.8 265.186667,1.06666667 264.28,1.6 C263.373333,2.13333333 262.6,2.82 261.96,3.66 C261.32,4.5 260.833333,5.43333333 260.5,6.46 C260.166667,7.48666667 260,8.50666667 260,9.52 C260,10.5066667 260.16,11.52 260.48,12.56 C260.8,13.6 261.26,14.54 261.86,15.38 C262.46,16.22 263.186667,16.9066667 264.04,17.44 C264.893333,17.9733333 265.866667,18.24 266.96,18.24 L266.96,18.24 L290.28,18.24 Z M288.6,11.44 C289.133333,11.44 289.586667,11.2533333 289.96,10.88 C290.333333,10.5066667 290.52,10.0533333 290.52,9.52 C290.52,8.98666667 290.333333,8.53333333 289.96,8.16 C289.586667,7.78666667 289.133333,7.6 288.6,7.6 L288.6,7.6 L268.68,7.6 C268.146667,7.6 267.693333,7.78666667 267.32,8.16 C266.946667,8.53333333 266.76,8.98666667 266.76,9.52 C266.76,10.0533333 266.946667,10.5066667 267.32,10.88 C267.693333,11.2533333 268.146667,11.44 268.68,11.44 L268.68,11.44 L288.6,11.44 Z" id="KOINSPACE" fill="#FFFFFF"></path>
                <path d="M205.08,16.4 C205.773333,16.4 206.36,16.16 206.84,15.68 C207.32,15.2 207.56,14.6133333 207.56,13.92 C207.56,13.2266667 207.32,12.64 206.84,12.16 C206.36,11.68 205.773333,11.44 205.08,11.44 C204.386667,11.44 203.8,11.68 203.32,12.16 C202.84,12.64 202.6,13.2266667 202.6,13.92 C202.6,14.6133333 202.84,15.2 203.32,15.68 C203.8,16.16 204.386667,16.4 205.08,16.4 Z" id="Path" fill="#FF7700"></path>
            </g>
        </g>
    </g>
</svg>